<svg width="99" height="100" viewBox="0 0 99 100" fill="none" xmlns="http://www.w3.org/2000/svg">
<g clip-path="url(#clip0_20_265)">
<path d="M38.716 40.2086L35.2036 46.0689C32.868 49.9659 34 54.9379 37.7319 57.1745L47.8675 63.2493C51.5995 65.486 56.518 64.1401 58.8535 60.2433L62.3658 54.3831L53.9194 49.3207L57.0911 44.0287L65.5375 49.091L70.3774 41.0158L61.931 35.9534L65.1027 30.6614L73.5492 35.7238L75.6282 32.255C77.964 28.358 76.8319 23.3859 73.1 21.1492L62.9644 15.0744C59.2324 12.8377 54.314 14.1835 51.9783 18.0805L49.8992 21.5496L58.3456 26.6119L55.1739 31.9039L46.7274 26.8416L41.8875 34.9169L50.334 39.9792L47.1622 45.2712L38.7158 40.2089L38.716 40.2086Z" fill="#FF8A36"/>
<path d="M26.0376 45.2709C23.5288 52.3699 26.0218 60.3516 31.837 63.8369L35.7707 66.1945L30.8571 74.3928L25.9582 71.4567L22.7864 76.7487L37.652 85.6583L40.8238 80.3663L35.9248 77.4302L40.8385 69.2319L44.7721 71.5895C50.917 75.2724 59.2756 72.6711 63.8072 68.0288L59.6523 63.806C56.8247 66.7037 51.4449 68.3958 47.9438 66.2975L35.009 58.545C31.6487 56.531 30.1436 51.417 31.6527 47.1451L26.0376 45.2709Z" fill="#FF8A36"/>
</g>
<defs>
<clipPath id="clip0_20_265">
<rect width="70.4405" height="73.5557" fill="white" transform="translate(37.8137) rotate(30.9362)"/>
</clipPath>
</defs>
</svg>
